<svg data-v-423bf9ae="" xmlns="http://www.w3.org/2000/svg" viewBox="0 0 433.86319008178646 163" class="iconAbove"><!----><!----><!----><g data-v-423bf9ae="" id="edad7f7b-ee21-469f-9a5e-94f35f7c9b9a" fill="#10312F" transform="matrix(5.730659401617148,0,0,5.730659401617148,-0.9792469655826324,75.72205707563558)"><path d="M7.34 5.25L0.48 5.25C-0.06 5.25 0.17 6.72 0.69 6.96C1.29 6.64 2.11 6.24 2.93 6.05L2.93 14.24C2.93 14.85 3.40 15.23 4.05 15.23C4.59 15.23 5.00 14.95 5.17 14.80C4.91 14.18 4.89 13.51 4.89 12.98L4.87 6.03C5.68 6.24 6.52 6.64 7.11 6.96C7.64 6.72 7.87 5.25 7.34 5.25ZM12.92 12.98C12.61 13.57 11.96 14.03 10.92 14.03C9.76 14.03 9.03 13.45 8.89 11.80C9.38 11.86 9.83 11.86 10.26 11.86C12.04 11.86 13.27 11.10 13.27 9.72C13.27 8.30 12.00 7.59 10.39 7.59C8.06 7.59 6.80 9.03 6.80 11.38C6.80 13.83 8.20 15.22 10.37 15.22C11.70 15.22 12.68 14.70 13.05 13.79C13.26 13.27 13.12 13.06 12.92 12.98ZM10.32 8.23C10.77 8.23 11.20 8.46 11.20 9.39C11.20 11.05 9.95 11.17 9.13 11.16C9.03 11.16 8.95 11.16 8.86 11.14L8.86 11.13C8.86 9.32 9.39 8.23 10.32 8.23ZM16.34 15.16C17.02 15.16 17.61 14.74 17.61 14.15C17.61 13.99 17.56 13.75 17.42 13.55C17.33 13.69 17.14 13.73 17.01 13.73C16.69 13.73 16.52 13.48 16.52 12.99L16.52 7.91C16.52 6.75 16.56 6.08 16.80 5.18C16.65 5.04 16.27 4.76 15.71 4.76C15.08 4.76 14.60 5.12 14.60 5.75L14.60 13.16C14.60 14.39 15.20 15.16 16.34 15.16ZM24.40 12.98C24.09 13.57 23.44 14.03 22.40 14.03C21.24 14.03 20.51 13.45 20.37 11.80C20.86 11.86 21.31 11.86 21.74 11.86C23.52 11.86 24.75 11.10 24.75 9.72C24.75 8.30 23.48 7.59 21.87 7.59C19.54 7.59 18.28 9.03 18.28 11.38C18.28 13.83 19.68 15.22 21.85 15.22C23.18 15.22 24.16 14.70 24.53 13.79C24.74 13.27 24.60 13.06 24.40 12.98ZM21.80 8.23C22.25 8.23 22.68 8.46 22.68 9.39C22.68 11.05 21.43 11.17 20.61 11.16C20.51 11.16 20.43 11.16 20.34 11.14L20.34 11.13C20.34 9.32 20.87 8.23 21.80 8.23ZM28.67 5.05C27.51 5.05 26.66 5.21 26.07 5.49C26.31 6.12 26.35 6.86 26.35 7.31L26.35 14.24C26.35 14.85 26.82 15.23 27.47 15.23C28.01 15.23 28.42 14.95 28.59 14.80C28.34 14.22 28.31 13.55 28.31 13.09L28.31 11.24L28.63 11.24C31.39 11.24 32.94 10.05 32.94 7.95C32.94 5.88 31.40 5.05 28.67 5.05ZM28.53 10.58L28.31 10.58L28.31 5.74C28.42 5.73 28.56 5.73 28.71 5.73C30.28 5.73 30.80 6.71 30.80 8.09C30.80 9.55 30.25 10.58 28.53 10.58ZM40.54 12.98L40.54 10.39C40.54 8.53 39.83 7.59 38.29 7.59C37.24 7.59 36.55 8.09 36.18 8.99L36.18 8.61C36.19 7.21 36.23 6.10 36.51 5.18C36.33 5.04 35.80 4.72 35.20 4.77C34.68 4.82 34.29 5.12 34.30 5.75L34.30 14.14C34.30 14.81 34.79 15.23 35.42 15.23C35.95 15.23 36.34 14.97 36.51 14.81C36.19 14.06 36.19 13.55 36.19 11.73C36.19 9.56 36.78 8.47 37.63 8.47C38.44 8.47 38.63 9.28 38.63 10.70L38.63 14.24C38.63 14.85 39.10 15.23 39.73 15.23C40.22 15.23 40.57 15.02 40.82 14.80C40.59 14.18 40.54 13.40 40.54 12.98ZM49.07 13.55C48.97 13.69 48.79 13.73 48.69 13.73C48.38 13.73 48.23 13.48 48.23 12.99L48.23 10.63C48.23 8.44 47.29 7.59 45.21 7.59C43.37 7.59 42.20 8.20 42.20 9.32C42.20 10.05 42.71 10.63 43.62 10.63C44.03 10.63 44.42 10.51 44.65 10.29C44.25 10.07 44.16 9.63 44.16 9.25C44.16 8.51 44.55 8.22 45.09 8.22C45.98 8.22 46.26 8.99 46.26 10.50L46.26 10.85C45.72 10.88 45.05 10.93 44.31 11.14C43.15 11.48 41.86 12.17 41.86 13.51C41.86 14.59 42.64 15.16 43.71 15.16C45.00 15.16 45.91 14.38 46.40 13.33C46.51 14.69 47.07 15.16 47.92 15.16C48.75 15.16 49.25 14.70 49.25 14.15C49.25 13.99 49.20 13.75 49.07 13.55ZM44.72 13.92C44.18 13.97 43.97 13.51 43.97 13.03C43.97 12.47 44.30 12.03 44.74 11.77C45.18 11.52 45.77 11.47 46.31 11.47C46.31 12.84 45.43 13.85 44.72 13.92ZM53.83 7.59C52.92 7.59 52.32 8.08 51.98 9.11C51.90 8.08 51.35 7.59 50.55 7.59C49.81 7.59 49.41 8.01 49.41 8.58C49.41 8.81 49.46 8.99 49.59 9.18C49.67 9.04 49.85 9.02 49.95 9.02C50.19 9.02 50.32 9.23 50.32 9.76L50.32 14.08C50.32 14.78 50.85 15.18 51.44 15.18C51.98 15.16 52.37 14.91 52.54 14.76C52.22 14 52.22 13.50 52.22 11.73C52.22 9.55 52.61 8.47 53.27 8.47C53.66 8.47 53.84 8.74 53.84 9.20C53.84 9.58 53.79 9.80 53.59 10.16C53.76 10.36 54.08 10.47 54.47 10.47C55.15 10.46 55.65 9.93 55.65 9.20C55.65 8.19 54.89 7.59 53.83 7.59ZM67.16 12.98L67.16 10.39C67.16 8.54 66.46 7.59 65.03 7.59C63.91 7.59 63.18 8.23 62.85 9.21C62.59 8.15 61.98 7.59 60.86 7.59C59.65 7.59 58.97 8.25 58.63 9.28C58.56 8.13 58.03 7.59 57.19 7.59C56.46 7.59 56.03 8.02 56.03 8.61C56.03 8.82 56.08 9.02 56.21 9.21C56.29 9.07 56.48 9.02 56.59 9.02C56.84 9.02 56.98 9.24 56.98 9.76L56.99 14.14C56.99 14.81 57.47 15.23 58.10 15.23C58.70 15.23 59.04 14.97 59.21 14.81C58.88 14.06 58.88 13.55 58.88 11.76C58.88 9.55 59.43 8.47 60.20 8.47C60.97 8.47 61.12 9.28 61.12 10.70L61.12 14.24C61.12 14.85 61.59 15.23 62.19 15.23C62.69 15.23 63.01 15.02 63.27 14.80C63.03 14.18 62.99 13.40 62.99 12.98L62.99 11.69C63 9.55 63.66 8.47 64.40 8.47C65.18 8.47 65.23 9.52 65.23 10.70L65.23 14.24C65.23 14.85 65.70 15.23 66.33 15.23C66.84 15.23 67.19 15.02 67.44 14.80C67.20 14.18 67.16 13.40 67.16 12.98ZM75.70 13.55C75.60 13.69 75.42 13.73 75.32 13.73C75.01 13.73 74.86 13.48 74.86 12.99L74.86 10.63C74.86 8.44 73.92 7.59 71.83 7.59C70 7.59 68.82 8.20 68.82 9.32C68.82 10.05 69.34 10.63 70.25 10.63C70.66 10.63 71.05 10.51 71.27 10.29C70.88 10.07 70.78 9.63 70.78 9.25C70.78 8.51 71.18 8.22 71.72 8.22C72.60 8.22 72.88 8.99 72.88 10.50L72.88 10.85C72.35 10.88 71.68 10.93 70.94 11.14C69.78 11.48 68.49 12.17 68.49 13.51C68.49 14.59 69.27 15.16 70.34 15.16C71.62 15.16 72.53 14.38 73.02 13.33C73.14 14.69 73.70 15.16 74.55 15.16C75.38 15.16 75.88 14.70 75.88 14.15C75.88 13.99 75.82 13.75 75.70 13.55ZM71.34 13.92C70.81 13.97 70.60 13.51 70.60 13.03C70.60 12.47 70.92 12.03 71.37 11.77C71.81 11.52 72.39 11.47 72.94 11.47C72.94 12.84 72.06 13.85 71.34 13.92Z"></path></g><defs data-v-423bf9ae=""><linearGradient data-v-423bf9ae="" gradientTransform="rotate(25)" id="0fbee636-8f70-44f0-907f-0d9b4b7c6607" x1="0%" y1="0%" x2="100%" y2="0%"><stop data-v-423bf9ae="" offset="0%" style="stop-color: rgb(1, 100, 139); stop-opacity: 1;"></stop><stop data-v-423bf9ae="" offset="100%" style="stop-color: rgb(91, 208, 164); stop-opacity: 1;"></stop></linearGradient></defs><g data-v-423bf9ae="" id="460f28c9-a11c-4ab7-9389-3d0507d46ef5" transform="matrix(1.01374184768504,0,0,1.01374184768504,166.895915428248,-5.0770917673478095)" stroke="none" fill="#48bb78"><ellipse cx="65.962" cy="12.33" rx="6.175" ry="6.224"></ellipse><path d="M55.889 71.822l3.754.004 2.411 22.457 3.868.107.072-22.564h1.645l-.05 22.457h3.548l2.72-22.457 3.968-.022-4.154-36.397h1.403l2.369 20.932 4.1-3.595-4.465-31.555-22.052-.026-3.397 31.811 4.054 3.189 1.573-20.726 1.364.037z"></path><ellipse cx="32.856" cy="11.392" rx="5.738" ry="5.782"></ellipse><path d="M60.695 89.431l-.316-2.94H12.824v-43.1h38.99l.423-3.96h-5.983l-2.525-20.223-21.586-.023-1.848 20.246H6.583v3.96h3.301v46.04h50.811zM41.96 33.881l.578 5.55h-1.325l-.492-5.55h1.239zm-17.849.027l1.204.031-.282 5.492h-1.288l.366-5.523zM93.417 39.431H80.501l.097.687.416 2.94.047.332h5.713v43.101H72.92l-.356 2.94h17.15V43.39h3.703z"></path><path d="M33.214 52.362c-6.622 0-11.989 5.368-11.989 11.989 0 6.622 5.368 11.989 11.989 11.989 6.622 0 11.989-5.368 11.989-11.989.001-6.622-5.367-11.989-11.989-11.989zm7.496 14.016h-5.505v5.343h-3.98v-5.343h-5.506v-3.966h5.506v-5.431h3.98v5.431h5.505v3.966z"></path></g><!----></svg>