<svg data-v-423bf9ae="" xmlns="http://www.w3.org/2000/svg" viewBox="0 0 58.68483948709293 60" class="icon"><!----><!----><!----><!----><g data-v-423bf9ae="" id="489ad8ff-79fa-4456-b5dd-bda6c8f71241" transform="matrix(0.6758278984566932,0,0,0.6758278984566932,-4.448974344831733,-3.7913950774119627)" stroke="none" fill="green"><ellipse cx="65.962" cy="12.33" rx="6.175" ry="6.224"></ellipse><path d="M55.889 71.822l3.754.004 2.411 22.457 3.868.107.072-22.564h1.645l-.05 22.457h3.548l2.72-22.457 3.968-.022-4.154-36.397h1.403l2.369 20.932 4.1-3.595-4.465-31.555-22.052-.026-3.397 31.811 4.054 3.189 1.573-20.726 1.364.037z"></path><ellipse cx="32.856" cy="11.392" rx="5.738" ry="5.782"></ellipse><path d="M60.695 89.431l-.316-2.94H12.824v-43.1h38.99l.423-3.96h-5.983l-2.525-20.223-21.586-.023-1.848 20.246H6.583v3.96h3.301v46.04h50.811zM41.96 33.881l.578 5.55h-1.325l-.492-5.55h1.239zm-17.849.027l1.204.031-.282 5.492h-1.288l.366-5.523zM93.417 39.431H80.501l.097.687.416 2.94.047.332h5.713v43.101H72.92l-.356 2.94h17.15V43.39h3.703z"></path><path d="M33.214 52.362c-6.622 0-11.989 5.368-11.989 11.989 0 6.622 5.368 11.989 11.989 11.989 6.622 0 11.989-5.368 11.989-11.989.001-6.622-5.367-11.989-11.989-11.989zm7.496 14.016h-5.505v5.343h-3.98v-5.343h-5.506v-3.966h5.506v-5.431h3.98v5.431h5.505v3.966z"></path></g><!----></svg>