<svg height="480pt" viewBox="0 0 480 480.00001" width="480pt" xmlns="http://www.w3.org/2000/svg"><path d="m224 320c0-4.417969-3.582031-8-8-8h-56v-48h56c4.417969 0 8-3.582031 8-8v-64c0-4.417969-3.582031-8-8-8h-64c-4.417969 0-8 3.582031-8 8s3.582031 8 8 8h56v48h-56c-4.417969 0-8 3.582031-8 8v64c0 4.417969 3.582031 8 8 8h64c4.417969 0 8-3.582031 8-8zm0 0"/><path d="m328 328c4.417969 0 8-3.582031 8-8v-128c0-4.417969-3.582031-8-8-8s-8 3.582031-8 8v56h-48v-56c0-4.417969-3.582031-8-8-8s-8 3.582031-8 8v64c0 4.417969 3.582031 8 8 8h56v56c0 4.417969 3.582031 8 8 8zm0 0"/><path d="m308.558594 370.398438c3.367187-2.605469 4.097656-7.390626 1.667968-10.886719-2.429687-3.496094-7.167968-4.476563-10.785156-2.230469-35.722656 24.878906-83.160156 24.878906-118.882812 0-2.335938-1.8125-5.480469-2.1875-8.179688-.976562-2.699218 1.214843-4.507812 3.816406-4.703125 6.765624-.195312 2.953126 1.25 5.769532 3.765625 7.328126 41.203125 28.6875 95.914063 28.6875 137.117188 0zm0 0"/><path d="m240 112c-24.535156-.042969-48.480469 7.503906-68.558594 21.601562-3.617187 2.519532-4.511718 7.492188-2 11.117188 2.519532 3.617188 7.496094 4.511719 11.117188 2 35.722656-24.878906 83.160156-24.878906 118.882812 0 2.335938 1.8125 5.480469 2.1875 8.179688.976562 2.699218-1.214843 4.507812-3.816406 4.703125-6.765624.195312-2.953126-1.25-5.769532-3.765625-7.328126-20.078125-14.097656-44.023438-21.644531-68.558594-21.601562zm0 0"/><path d="m472 288c-4.417969 0-8 3.582031-8 8 0 13.253906-10.746094 24-24 24h-24v-112h24c13.253906 0 24 10.746094 24 24 0 4.417969 3.582031 8 8 8s8-3.582031 8-8c-.007812-15.898438-9.429688-30.28125-24-36.640625-2.519531-108.640625-91.328125-195.3867188-200-195.359375h-32c-108.671875-.0273438-197.480469 86.71875-200 195.359375-14.570312 6.359375-23.9921875 20.742187-24 36.640625 0 4.417969 3.582031 8 8 8s8-3.582031 8-8c0-13.253906 10.746094-24 24-24h24v112h-24c-13.253906 0-24-10.746094-24-24 0-4.417969-3.582031-8-8-8s-8 3.582031-8 8c0 22.089844 17.910156 40 40 40h24c0 13.253906 10.746094 24 24 24s24-10.746094 24-24v-144c0-13.253906-10.746094-24-24-24-4.738281-.007812-9.363281 1.414062-13.28125 4.078125 13.433594-71.882813 76.152344-124.015625 149.28125-124.078125 4.417969 0 8-3.582031 8-8s-3.582031-8-8-8c-89.59375.113281-163.332031 70.507812-167.601562 160h-16.398438c4.285156-98.484375 85.421875-176.09375 184-176h32c98.578125-.09375 179.714844 77.515625 184 176h-16c-4.273438-89.644531-78.253906-160.101562-168-160-4.417969 0-8 3.582031-8 8s3.582031 8 8 8c73.128906.0625 135.847656 52.195312 149.28125 124.078125-3.917969-2.664063-8.542969-4.085937-13.28125-4.078125-13.253906 0-24 10.746094-24 24v144c0 13.253906 10.746094 24 24 24s24-10.746094 24-24h8c-3.933594 56.214844-49.019531 100.757812-105.28125 104-3.621094-14.035156-16.226562-23.878906-30.71875-24h-16c-17.671875 0-32 14.328125-32 32s14.328125 32 32 32h16c14.582031-.011719 27.3125-9.878906 30.960938-24 64.984374-3.417969 117.0625-55.046875 121.039062-120 22.089844 0 40-17.910156 40-40 0-4.417969-3.582031-8-8-8zm-392-96c0-4.417969 3.582031-8 8-8s8 3.582031 8 8v144c0 4.417969-3.582031 8-8 8s-8-3.582031-8-8zm320 144c0 4.417969-3.582031 8-8 8s-8-3.582031-8-8v-144c0-4.417969 3.582031-8 8-8s8 3.582031 8 8zm-112 128h-16c-8.835938 0-16-7.164062-16-16s7.164062-16 16-16h16c8.835938 0 16 7.164062 16 16s-7.164062 16-16 16zm0 0"/></svg>